<svg xmlns="http://www.w3.org/2000/svg" xmlns:xlink="http://www.w3.org/1999/xlink" width="1920" height="1998.105" viewBox="0 0 1920 1998.105"><defs><clipPath id="a"><rect width="1920" height="1998.106" fill="#f688b6"/></clipPath></defs><g transform="translate(-421 -685)"><g transform="translate(421 685)"><g transform="translate(0 0)" clip-path="url(#a)"><path d="M1674.42,5.446c-114.913,34.514-225.823,79.93-342.794,108.07-56.445,13.581-114.918,27.307-173.033,30.573-56.429,3.168-112.9-5.689-166.234-24.142C938.193,101.2,888.319,72.088,834.45,52.44c-28.023-10.221-56.968-18.406-86.506-22.806-26.23-3.909-60.274-8.2-85.743,1.5C634.341,41.738,673.638,70.4,684.4,79.08c22.93,18.5,46.112,36.683,68.939,55.305s45.384,37.679,66.733,58.018c19.15,18.245,35.694,37.012,41.552,63.563,5.712,25.888.2,53.119-1.234,79.215-1.387,25.367-.5,50.8,3.856,75.86a280.08,280.08,0,0,0,59.375,129.237c35.021,42.834,89.908,77.058,112.351,129.077,21.1,48.893-23.124,86.884-68.068,95.539-115.875,22.308-196.635-93.5-295.2-130.638-48.461-18.258-100.5-23.7-151.959-20.208-44.278,3-98.047,15.337-139.816-5.687-38.393-19.326-49.924-63.945-57.721-102.787-11.241-56-10.923-114.166,5.332-169.173,7.979-27,19.406-52.145,35.643-75.179,15.477-21.956,34.527-40.816,50.966-61.97,33.917-43.647,54.425-97.306,69.405-150.128,6.692-23.6-3.682-34.5-20.66-49.012H851.4c54.521,18.727,108.342,39.135,164.9,51.058A726.086,726.086,0,0,0,1178.14,66.513c113.727-1.909,221.62-32.285,329.187-66.4,53.921,0,107.839.06,161.76-.117,4.445-.012,6.219,1.008,5.333,5.451M720.762,379.737c-3.616-42.475-5.652-84.531-23.62-123.953-16.039-35.186-42.324-64.845-74.689-85.907-30.722-19.993-63.389-25.851-94.278-3.02-33.854,25.019-62,62.189-90.1,93.3C383.571,320.517,345.5,417.073,379.747,496.91c32.011,74.634,140.2,43.3,199.947,30.3,37.472-8.153,83.684-14.994,111.564-43.954,26.811-27.853,25.812-67.519,29.5-103.521" transform="translate(245.358 0.003)" fill="#f688b6"/><path d="M0,608.878V562.661c30.023-2.311,59.681-7.852,89.19-13.693,28.722-5.684,58.162-10.141,86.132-18.95,53.572-16.873,94.278-53.209,141.253-82.248,36.786-22.742,94.232-56.084,127.624-11.513,34.573,46.143,43.328,111.434,63.492,164.421,15.4,40.457,37.479,86.182,76.162,109.206,40.464,24.084,87.647,10.379,131.573,7.49,107.919-7.1,192.391,56,263.551,130.492,35.307,36.962,67.1,77.178,103.169,113.411,17.435,17.513,35.5,37.655,60.155,44.383,19.9,5.428,39.138,1.422,58-5.652,50.8-19.051,97.213-49.654,144.1-76.591,46.808-26.891,93.6-53.855,139.825-81.747,43.668-26.352,85.939-55.206,124.712-88.417,34.425-29.486,72.253-65.2,84.223-110.646,12.208-46.338-14.971-88.166-50.641-115.6-41.464-31.887-87.514-59.156-126.474-94.12-38.354-34.418-57.64-79.09-20.333-122.613,31.81-37.11,78.962-61.494,122.248-82.452,49.568-24,99.544-47.188,149.4-70.577q40.7-19.091,81.416-38.134c22.431-10.5,46.713-26.263,71-31.065v40.884c-28.221,8.841-55.4,26.057-81.86,39.3-55.3,27.675-112.4,54.612-162.078,91.846-21.261,15.936-43.592,34.589-57.56,57.581-16.237,26.724-7.892,53.6,12.119,75.434s47.36,36.247,72.653,51.08c25.27,14.82,51.163,28.528,76.463,43.287,43.073,25.129,114.3,66.712,109.174,125.619-2.418,27.774-23.787,52.557-42.359,71.764-20.916,21.629-44.984,39.906-69.425,57.325-50.9,36.274-104.447,68.52-158.506,99.813-102.618,59.4-216.811,114.207-302.27,198.011-36.087,35.389-65.551,77.268-84.747,124.129-11.286,27.549-18.88,56.488-26.407,85.236-4.254,16.249-8.377,32.541-13.01,48.688-3.236,11.275-6.254,28.482-15.737,36.443-30.395,25.519-86.659-92.915-95.665-112.813-24.983-55.208-39.391-114.1-60.783-170.647-36.871-97.452-102.2-198.562-198.983-245.353-54.868-26.526-107.285-19.765-165.587-12.6-52.873,6.5-93.171-16.08-123.5-58.576-35.926-50.336-52.5-110.174-75.154-166.956-10.285-25.774-22.713-57.89-45.016-75.793-20.285-16.281-44.287-12.91-67.236-4.837-57.094,20.086-100.9,66.514-159.562,83.2C123.827,587.448,62.356,598.51,0,608.878" transform="translate(0 68.492)" fill="#f688b6"/><path d="M0,527.555c53.714-.016,110.262-7.067,162.681-18.891,49.442-11.154,88.595-50.857,127.031-81.421Q353.618,376.424,417.444,325.5c20.475-16.311,40.537-33.444,61.711-48.841,5.145-3.742,16.569-14.432,23.8-11.989,9.815,3.316,8.356,22.939,9.3,30.941,6.487,55.08,9.557,110.522,17.643,165.422,7.216,48.992,15.883,102.677,43.89,144.7,27.318,40.991,67.533,46.088,113.462,44.023,49.529-2.226,96.968-7.9,145.989,3.3,106.556,24.354,176.972,117.219,272.618,163.37,45.295,21.856,93.311,31.467,143.2,21.136,45.567-9.435,90.207-31.371,125.249-61.983,34.036-29.732,67.393-75.073,49.606-122.271-8.795-23.337-28.21-42.724-45.291-60.278-19.234-19.767-39.677-38.194-60.168-56.628-36.976-33.264-77.357-70.388-90.659-120.268-11.229-42.109,4.62-82.47,35.223-112.136,41.416-40.146,99.443-59.9,153.641-75.954,56.392-16.706,111.85-35.769,166.423-57.718,56.834-22.857,111.937-49.366,168.042-73.866,28.486-12.439,57.272-24.176,86.086-35.826,27.129-10.967,54.432-24.592,82.568-32.576V92.05c-28.807,8.061-56.328,26.038-83.281,39.1q-42.5,20.6-85.421,40.308c-55.2,25.357-110.943,49.46-166.958,72.961-26.6,11.161-52.882,23.033-78.957,35.376-26.2,12.405-54.13,23.68-78.106,40.139-42.823,29.4-76.413,77.156-46.338,128,26.032,44.013,70.082,72.506,108.835,103.962,34.87,28.306,81.779,63.835,87.363,111.884,5.346,46.006-26.6,89.2-58.143,119.272-34.118,32.535-72.676,61.067-112.766,85.779a751.713,751.713,0,0,1-132.636,64.5c-44.511,16.539-93.073,24.311-138.291,5.8-46.221-18.925-86.865-57.572-124.732-89.163-39.247-32.743-77.533-68.925-121.029-96.063-37.017-23.1-78.8-37.963-122.35-41.725-47.5-4.1-95.558,11.822-142.689,4.379-44.276-6.994-73.882-46.292-89.958-85.62-19.57-47.88-29.924-99.706-46.178-148.768-11.959-36.1-24.08-87.292-72.363-78.463-46.514,8.5-89.24,45.743-126.551,72.634-39.808,28.694-78.507,62.872-127.822,72.929C108.008,560.165,54.516,570.6,0,573.772Z" transform="translate(0 21.83)" fill="#f688b6"/><path d="M1361.62,1501.116h-69.325c-20.967-16.312-44.3-29.639-65.64-45.6-21.838-16.332-42.9-33.684-63.378-51.687a1432.263,1432.263,0,0,1-116.614-115.35c-74.225-82.095-137.439-172.819-207.461-258.338C784.436,963.257,714.689,899.1,624.674,889.432c-36.633-3.933-80.767.622-105.11,31.7-24.157,30.836-18.621,72.591-3.689,106.117,20.187,45.318,55.341,83.969,85.508,122.886,29.335,37.847,58.459,76,83.268,117.029,22.486,37.183,47.73,80.689,48.527,125.4.77,43.3-33.81,47.521-69,40.71-179.653-34.779-259.048-223.081-306.4-379.184-14.021-46.226-22.964-93.057-32.518-140.31-8.05-39.814-18.816-91.542-51.944-118.7-16.594-13.6-35.755-16.578-56.381-19.623-23.595-3.483-47.135-8.1-71.057-8.544-49.2-.917-97.548,18-145.882,24.955V694.1c35.426-6.912,70.724-22.638,104.758-34.651,32.747-11.557,64.4-18.758,99.244-19.86,28.436-.9,60.424-3.2,84.838,14.091,24.768,17.543,36.717,50.505,50.136,76.546,21.95,42.6,41.99,110.52,101.076,102.7,29.666-3.927,58.161-9.534,88.294-9.595a472.058,472.058,0,0,1,88.5,7.97c48.144,9.127,94.186,27.828,134.348,56.015,46.008,32.288,80.353,76.072,113.946,120.515,72.82,96.346,139.616,196.267,222.521,284.62a1188.227,1188.227,0,0,0,128.222,118.493,728.986,728.986,0,0,0,71.4,50.452c23.773,14.578,51.666,23.993,74.337,39.723" transform="translate(0 496.989)" fill="#f688b6"/><path d="M0,452.5c53.435-8.711,104.06-23.492,156.458-36.146,23.59-5.7,46.258-11.1,68.447-21.273,22.592-10.359,43.791-23.513,65.7-35.206,40.29-21.508,85.851-39.008,120.134,2.069,31.191,37.375,45.423,91.165,64.308,135.292,19.115,44.66,37.826,89.919,73.128,124.485,15.565,15.241,33.387,28.217,54.9,33.337,25.017,5.956,52.884,1.045,77.743-3.532,41.113-7.572,81.748-5.829,120.234,11.881,39.067,17.981,70.817,48.656,97.158,82.095C962.2,826.74,984.5,927.347,1019,1022.648c33.91,93.684,76.02,193.029,143.829,267.681,19.49,21.456,77.03,79.021,109.174,51.528,17.069-14.6,15.3-45.782,14.03-65.705-1.9-29.7-5.484-59.211-8.565-88.8-9.908-95.119-1.083-189.244,54.018-270.072,61.273-89.88,162.282-146.512,256.448-195.783q82.15-42.984,164.663-85.27,42.755-21.982,85.533-43.924c26.24-13.47,53.426-31.743,81.649-40.258v79.99c-58.175,20.439-114.588,49.659-170.9,74.82-55.7,24.889-111.786,49.4-165.321,78.753-94.6,51.867-189.417,120.444-228.366,225.335-39.5,106.371-6.475,217.366,10.1,324.7,5.493,35.574,12.763,94.824-27.518,114.166-39.576,19-89.2-13.047-119.8-35.835C1045.188,1285.292,995.4,1062.845,906.3,878.988c-37.319-77.016-105.187-164.115-200.548-154.965C656,728.8,611.6,743.792,566.6,713.189c-41.031-27.9-68.561-74.463-90.484-117.82-23.828-47.126-40.756-97.733-66.959-143.642-11.14-19.518-23.286-39.695-45.446-47.828-19.739-7.245-39.92-2.386-59.113,4.107-25.671,8.683-49.657,21.623-74.87,31.5-24.288,9.515-49.044,16.356-74.266,22.837C103.409,475.716,52.946,490.95,0,500.5v-48" transform="translate(0 262.198)" fill="#f688b6"/><path d="M1919.778,630.156v51.549c-28.267,6.2-56.48,22.537-83.151,33.846-29.364,12.452-58.717,24.932-87.942,37.709-53.584,23.424-107.039,47.247-156.026,79.5-85.281,56.144-154.32,134.8-165.381,239.709-11.469,108.8,36.9,209.227,44.962,315.873,3.163,41.858-3.986,93.407-42.176,118.449-40.967,26.862-93.761,9.077-133.685-10.43-88.267-43.127-161.1-119.07-219.321-196.781-63.942-85.343-110.461-182.014-159.957-276.033C876.069,945.6,825.8,846.221,735.527,816.686c-47.808-15.641-99.461-4.953-146.9-23.526-42.834-16.77-79.6-50.193-104.767-88.266-29.739-44.982-53.279-94.5-79.471-141.583-20.93-37.622-42.224-91.03-90.956-96.913-25.038-3.024-51.4,6.869-75.306,13.083-26.091,6.782-52.045,14.082-78,21.378C106.767,515.864,54.34,533.795,0,544.833V491.506c26.029-6,52.232-11.253,78.058-18.1,52.811-14,104.941-31.122,157-47.68,40.194-12.784,90.047-40.534,129.669-12.231,19.325,13.806,31.133,37.085,41.936,57.606,13.193,25.065,25.106,50.822,37.392,76.337,22.068,45.826,43.565,92.7,77.567,131.15,29.945,33.863,67.89,59.471,114.246,61.4,48.822,2.034,92.838-12.9,138.716,11.78,41.654,22.409,74.886,63.631,97.667,104.276,27.175,48.489,50.865,99.144,74.6,149.372,46.029,97.389,91.334,195.083,156.935,281.235,29.5,38.745,62.553,74.913,100.133,105.978,36.813,30.431,79.37,59.672,127.58,67.17,37.22,5.79,69.215-10.459,81.384-47,16.42-49.316-1.829-107.069-11.193-156.126-10.341-54.178-24.681-109.941-25.046-165.322-.32-48.625,9.6-97.43,31.51-140.983,44.319-88.088,129.713-145.747,214.644-190.34,48.679-25.559,98.666-48.573,149.128-70.372q37.846-16.35,76.011-31.942c22.85-9.4,47.5-23.342,71.842-27.554" transform="translate(0 312.071)" fill="#f688b6"/><path d="M0,693.385v-87.1c29.149-5.479,57.64-18.133,85.812-27.383,29.8-9.783,59.814-18.72,90.36-25.892,49.812-11.694,106.312-33.631,146.252,10.029,39.184,42.838,59.986,98.533,92.851,145.731,26.571,38.162,62.674,68.678,105.356,87.336,45.588,19.929,94.82,28.039,142.618,40.482,42.247,11,82.458,29.624,116.851,56.685,36.8,28.953,63.979,67.051,90.353,105.286,30.128,43.675,57.563,89.146,86.726,133.462,55.243,83.948,115.457,163.826,187.353,234.322,67.236,65.924,151.6,138.727,246.228,159.121,42.472,9.154,86.605,5.195,121.416-22.745,34.411-27.618,55.874-70.591,65.249-113.022,23.271-105.338-25.01-204.663-33.591-308.316-8.324-100.529,30.105-187.612,109.009-250.328,38.331-30.466,81.578-54.829,125.271-76.653,24.848-12.411,50.146-23.9,75.638-34.923,20.854-9.015,43.641-22.132,66.027-26.093V739.6c-27.668,5.467-55.721,23.305-81.282,35.284-25.229,11.821-50.5,23.776-74.868,37.3-45.551,25.28-88.881,57.385-121.342,98.543-30.912,39.2-48.34,86.486-51.853,136.177-4.261,60.239,11.1,118.718,21.9,177.44,17.643,95.967,11.682,194.987-47.268,276.483-52.518,72.607-136.291,79.736-214.98,46.621-89.062-37.481-166.067-105.258-233.071-173.447-70.907-72.162-131.031-153.381-188.187-236.6-53.362-77.695-105.013-168.7-187.611-218.894-41.519-25.23-88.314-36.146-135.171-46.943-26.055-6-52.059-12.215-78.12-18.2-24.53-5.634-50.5-10.021-73.908-19.492-43.252-17.5-64.729-55.535-87.163-93.99-12.5-21.431-25.03-43-38.487-63.848-11.406-17.668-23.547-34.683-43.549-43.17-20.349-8.633-41.051-4.857-62.23-2.171-23.984,3.038-48.616,4.658-71.981,11.182C100.013,656,51.6,683.855,0,693.385" transform="translate(0 417.711)" fill="#f688b6"/><path d="M1919.778,668.276v44.44c-24.615,6.871-48.436,20.352-71.818,30.7-93.987,41.609-192.359,80.545-264.95,156.153-68.328,71.169-85.3,164.245-70.157,259.369,16.4,103.05,67.892,214.6,21.14,316.958-15.794,34.582-43.295,63.254-80.717,73.384-43.167,11.685-89.585-1.986-128.714-20.607-89.238-42.466-165.964-114.115-230.189-187.989-69.6-80.063-125.4-169.815-179.251-260.882-47.359-80.095-99.274-169.358-189.143-207.118-45.936-19.3-96.744-21.949-143.831-37.5-39.727-13.115-76.5-34.3-106.765-63.29-36.617-35.07-58.5-79.928-84.58-122.669-14.107-23.117-28.075-46.384-43.446-68.69-12.253-17.783-25.35-34.313-46.095-42.384-20.978-8.162-41.942-4.613-63.325-.354-27.026,5.383-53.581,12.137-80.02,19.879C105.238,573.109,53.145,590.537,0,604.285V540.291c26.311-7.157,52.66-14.181,78.952-21.412,54.271-14.923,108.141-31.271,162.464-46.015,41.023-11.133,81.608-10.533,110.545,24.893,63.012,77.138,87.43,182.789,166.08,247.8,31.277,25.851,68.682,43.067,108.362,51.234,23.055,4.745,46.662,5.1,69.723,9.744a213.173,213.173,0,0,1,69.618,27.255c86.936,53.295,131.626,155.74,179.141,241.455,51.4,92.723,107.485,183.072,179.275,261.583,33.65,36.8,70.266,71,110.545,100.472,38.715,28.327,81.444,55.353,128.661,66.44,44.856,10.53,89.581,3.906,118.766-34.663,30.354-40.116,30.962-94.724,24.26-142.43-14.363-102.223-58.658-201.469-40.846-306.431,16.4-96.657,83.958-167.742,164.414-218.374C1675.3,773.3,1723.817,749.7,1772.642,727.8c24.973-11.2,50.178-21.867,75.483-32.288,22.694-9.346,47.424-23.307,71.652-27.232" transform="translate(0 362.83)" fill="#f688b6"/><path d="M569.787,1364.462c16.894-6.907,3.723-49.442.484-62.04-6.156-23.949-15.613-47.056-26.034-69.428-20.726-44.5-46.98-86.091-74.283-126.787-30.086-44.843-61.522-88.8-90.984-134.065-21.456-32.964-56.489-83.523-43.867-125.306,13.339-44.155,73.7-34.034,105.517-21.193,42.055,16.973,77.026,48.2,108.385,80.211,69.418,70.868,125.567,154.067,190.6,228.875,36.754,42.274,75.284,82.968,116.255,121.187,20.526,19.147,41.535,37.783,63.2,55.636,22.215,18.3,46.843,34.022,68.454,52.911H923.523a13.572,13.572,0,0,0-1.751-1.929c-97.366-73.346-184.016-158.112-265.9-248.1-31.46-34.571-64.148-68.086-97.484-100.856-10.921-10.736-25.044-18.784-38.838-25.844-10.26-5.25-16.548.537-15.474,12.185a50.278,50.278,0,0,0,3.422,14.617c4.8,11.454,9.449,23.086,15.554,33.856,28.909,51.007,58.655,101.54,87.388,152.645,27.2,48.384,50,98.8,66.458,151.943,1.394,4.5,2.462,8.409-2.229,11.483Z" transform="translate(258.562 633.643)" fill="#f688b6"/><path d="M0,764.3c36.519-1.7,72.347-12.389,108.874-12.185,37.142.208,73.243,10.018,108.339,21.349,29.254,9.447,51.38,21.079,62.082,51.695,12.125,34.688,16.512,72,22.594,108.042,22.471,133.134,67.506,271.025,168.994,365.1,55.5,51.446,120.991,82.682,188.6,114.815h-119.1c-55.508-39.835-114.584-73.786-162.714-123.068-40.909-41.886-70.619-92.3-88.8-147.895-19.289-58.993-24.439-120.326-31.606-181.593-5.837-49.894-12.064-96.47-67.222-111.736-27.842-7.7-58.043-19.154-87.178-18.99C68.621,830.023,34.182,833.478,0,835.4V764.3" transform="translate(0 584.994)" fill="#f688b6"/><path d="M479.944,1353.573H412.4c-92.684-59.917-207.835-122.63-256.438-227.387a201.477,201.477,0,0,1-18.294-69.014c-2.2-28.107,6.258-56.31,1.682-84.187C130.115,916.737,40.559,927.58,0,926.956V830.967c33.929-.773,69.49-4.531,103.235-.414,27.6,3.369,63.094,10.759,86.859,25.83,21.6,13.7,27.406,40.008,28.738,63.915,1.719,30.855,2.249,61.741,3.031,92.625,1.17,46.2,10.917,91.777,31.659,133.249,21.851,43.691,54.431,79.626,91.681,110.755,42.6,35.595,91.985,61.817,134.741,96.646" transform="translate(0 644.532)" fill="#f688b6"/><path d="M853.893,1475.439c1.111-1.262,1.995-2.9,3.365-3.734,42.836-26.069,70.171-65,91.483-109.178,31.3-64.868,44.324-133.134,36.747-204.693-4.194-39.611-11.454-78.891-16.932-118.375-7.661-55.211-7.691-109.813,15.209-162.174,20.027-45.789,53.028-80.856,92.451-110.344,52.948-39.606,112.079-67.967,172.571-93.75,2.075-.884,4.549-.83,6.837-1.214V725.3c-30.363,6.224-63.113,28.233-89.476,44.132-27.965,16.864-54.794,36.256-78.035,59.284-36.054,35.719-60.749,80.723-68,131.207-9.132,63.547,6.24,127.03,7.4,190.565C1029.7,1270.5,982,1383.514,907.22,1475.439Z" transform="translate(664.153 522.667)" fill="#f688b6"/><path d="M931.884,1431.111h-32c16.832-27.021,35.238-53.2,50.214-81.213,55.657-104.117,85.955-214.349,76.744-333.589-1.045-13.538-.37-27.223-.229-40.838.615-60.107,19.028-113.324,60.907-157.537,36.217-38.235,80.3-64.966,127.208-87.64a26.522,26.522,0,0,1,5.12-1.324v79.992c-43.629,12.717-83.651,61.22-103.379,100.4-25.783,51.2-25.54,109.508-35.954,164.8-23.892,126.839-85.391,245.782-148.634,356.954" transform="translate(699.927 566.995)" fill="#f688b6"/><path d="M1169.306,431.232c-44.379-19.012-90.157-36.084-133.306-57.8-30.729-15.467-77.343-43.574-70.441-84.344,6.672-39.4,50.3-70.143,81.114-90.68,19.371-12.91,39.579-24.587,59.743-36.2,19.806-11.412,40.786-27.342,62.891-33.161v51.551c-13.326,1.092-30.576,21.334-39.494,30.761-12.043,12.731-24.953,29.3-27.492,47.16-2.862,20.125,9.033,36.391,23.821,48.669,10.878,9.029,28.672,22.635,43.165,22.726Z" transform="translate(750.471 100.377)" fill="#f688b6"/><path d="M471.057.061c-1.733,4.014-3.326,8.093-5.221,12.029-8.56,17.781-6.517,36.1-3.493,54.7,16.2,99.617-11.634,185.936-79.151,260.111-38.409,42.2-82.632,77.937-126.86,113.628-15.872,12.809-32.256,25.014-48.761,37-24.135,17.533-51.753,25.1-81.163,27.174Q63.2,509.17,0,513.78v-48c35.785-.594,71.572-1.772,107.352-1.63,41.638.165,78.39-12.146,110.287-39.094,13.565-11.46,27.831-22.086,41.453-33.478,36.63-30.637,72.294-62.385,100.692-101.11,51.908-70.785,77.448-148.794,63.65-237.421C420.546,34.5,424.495,16.6,433.728.061Z" transform="translate(0 0.054)" fill="#f688b6"/><path d="M410.338.061c38.635,29.6,32.007,83.2,17.2,124.239-16.976,47.042-54.271,76.744-92.735,106.252-13.781,10.573-33.087,28.967-36.919,1.872-3.908-27.616-3.326-56.047-5.813-83.832q-3.717-41.552-11.042-82.634c-4.533-25.586-1.419-46.585,17.325-65.9Z" transform="translate(217.146 0.054)" fill="#f688b6"/><path d="M0,328.911V266.7c43.08,6.544,84.995,29.579,129.116,17.317,36.642-10.181,69.311-38.464,92.957-67.394,23.191-28.375,39.122-61.912,48.495-97.236C280.833,80.7,276.205,33.667,300.41.06h42.662C333.488,18.051,328.225,36.8,328.5,57.629c.252,19.106-.638,38.594-4.155,57.327C306.3,211.113,249.382,279.431,167.706,329.263c-20.242,12.35-42.635,17.91-66.29,15.1-25.506-3.031-50.87-7.287-76.278-11.12C16.733,331.972,8.377,330.364,0,328.911" transform="translate(0 0.054)" fill="#f688b6"/><path d="M371.513.061h35.551c-7.488,14.055-11.5,28.891-10.953,44.973.8,23.614,3.7,47.5,1.321,70.815-5.973,58.472-27.734,111.423-62.955,158.567-36.5,48.856-82.564,87.706-130.823,124.273-26.518,20.1-55.506,32.068-89.331,30.983-38.1-1.223-76.214-2.014-114.323-2.994V373.352c52.258,1.918,112.191,22.638,162.252.777,47.4-20.7,91.444-63.7,124.334-102.774,30.516-36.256,54.006-78.392,65.558-124.527a292.276,292.276,0,0,0,8.6-69.018c.183-27.227-1.116-52.347,10.772-77.748" transform="translate(0 0.054)" fill="#f688b6"/><path d="M0,215.146V135.157c21.394,6.953,47.78,20.67,70.712,18.834s42.164-21.565,54.374-39.59c13.469-19.883,21.991-41.494,32.516-62.843,9.869-20.016,24.72-36.957,41.487-51.5H261.3C252.765,14.728,243.657,28,238.326,44.349c-5.428,16.642-8.413,34.031-13.4,50.827-9.325,31.43-20.9,62.625-41.607,88.463-19.558,24.4-47.972,47.833-79.887,52.112-35,4.7-69.482-14.969-103.436-20.606" transform="translate(0 0.054)" fill="#f688b6"/><path d="M929.884,1355.674c1.584-3.723,2.9-7.589,4.791-11.149,71.777-134.885,141.649-270.655,194.8-414.306,13.323-36.009,29.849-70.312,57.085-98.257,2.619-2.685,6.606-4.036,9.957-6.005V977.052c-2.889,1.467-6.658,2.215-8.533,4.51-26.167,32.036-53.766,63.08-77.714,96.717-61.917,86.97-107.965,183.154-157.28,277.395Z" transform="translate(723.258 642.431)" fill="#f688b6"/><path d="M0,967.056c16.155.315,36.422-2.791,50.7,6.324,14.071,8.985,22.224,27.613,31.314,41.06a493.817,493.817,0,0,0,77.531,89.018c28.658,26.039,59.837,49.133,92,70.642,36.409,24.352,76.847,44.763,111.084,72.035H303.965c-3.14-2.509-6.023-5.453-9.456-7.463-82.239-48.152-163.129-98.357-234.518-162.064-17.684-15.78-36.2-25.074-59.992-22.45Z" transform="translate(0 751.971)" fill="#f688b6"/><path d="M952.881,1265.461c14.189-27.789,28.059-55.745,42.633-83.329,30.939-58.566,63.869-116.045,106.7-166.848,20.532-24.352,44.187-46.084,66.68-68.751,2.375-2.395,6.45-3.1,9.735-4.59V988.16c-49.522,22.525-88.89,78.308-118.522,122.069-16.541,24.423-31.6,49.816-45.817,75.649-13.789,25.049-31.581,52.23-40.082,79.583Z" transform="translate(741.145 732.645)" fill="#f688b6"/><path d="M0,1037.156c17.991-2.256,33.291,3.006,47.764,14.156,64.969,50.054,135.347,91.8,206.165,132.838,3.39,1.965,6.116,5.076,9.15,7.654H215.086c-3.42-2.932-6.512-6.4-10.311-8.713-54.431-33.1-109.13-65.754-163.337-99.212-13.017-8.036-26.164-13.289-41.439-12.95Z" transform="translate(0 806.301)" fill="#f688b6"/><path d="M1058.2.061C995.221,12.856,933.412,24.036,868.859,24.283a719.6,719.6,0,0,1-92.8-5.54c-29.431-3.712-63.659-7.1-91.149-18.683Z" transform="translate(532.722 0.054)" fill="#f688b6"/><path d="M1162.3,984.937v35.551c-84.541,36.95-133.208,132.063-170.647,211.533H973.878c.9-3.036,1.324-6.325,2.777-9.07,14.443-27.31,28.359-54.934,43.773-81.692,28.581-49.616,60.937-96.527,105.8-133.166,10.994-8.978,23.993-15.5,36.069-23.156" transform="translate(757.477 766.085)" fill="#f688b6"/><path d="M1010.652,1204.023H992.876c16.834-38,36.342-75.22,61.046-108.81,22.934-31.184,53.931-66.13,93.6-74.28v37.328c-28.882,2.307-51.163,16.935-69.844,37.9-28.566,32.059-49.224,69.087-67.028,107.862" transform="translate(772.253 794.083)" fill="#f688b6"/><path d="M0,1069.017c11.885-1.076,22.5,2.137,32.772,8.229,46.555,27.616,93.322,54.875,139.941,82.385,3.17,1.87,5.748,4.745,8.6,7.152h-44.44c-18.389-17.282-44.745-28.537-66.658-41.056C46.733,1112.312,25.977,1101.063,0,1093.9v-24.885" transform="translate(0 831.322)" fill="#f688b6"/><path d="M1132.749,1059.015v37.329c-11.163.94-22.831.119-33.4,3.137-37.856,10.813-53.645,42.449-67.922,75.077h-19.554c.46-1.961.455-4.2,1.447-5.84,14.589-24.135,27.8-49.3,44.411-71.963,18-24.559,42.614-39.888,75.018-37.739" transform="translate(787.029 823.548)" fill="#f688b6"/><path d="M1117.194,1096.991V1136.1c-10.6-.02-21.371-1.173-31.76.309-8.025,1.145-15.581,5.6-23.344,8.58h-30.219c10.281-22.9,24.128-42.463,50.827-47.032,11.225-1.92,22.981-.736,34.5-.964" transform="translate(802.583 853.119)" fill="#f688b6"/><path d="M0,1093.924c19.431,4.7,34.379,11.719,51.936,21.62,16.9,9.527,37.291,18.123,51.163,31.707H58.66c-14.176-8.477-28.139-17.346-42.653-25.2-4.58-2.478-10.629-2.238-16.007-3.243v-24.886" transform="translate(0 850.855)" fill="#f688b6"/><path d="M577.928,1128.9c11.332-5.412,21.87-12.256,34.928-11.293,12.916.953,25.792,7.33,37.952,11.293Z" transform="translate(449.509 869.205)" fill="#f688b6"/><path d="M0,1120.008c7.685-.843,14.429.912,19.554,7.109H0Z" transform="translate(0 870.989)" fill="#f688b6"/><path d="M563.953,233.669c-1.122,55.295-40.171,97.322-92.33,112.115-47.234,13.4-93.882-.96-92.753-56.657,1.079-53.017,37.57-104.63,83.348-129.847,21.5-11.844,47.426-17.205,68.913-2.423,23.956,16.482,32.852,49.2,32.822,76.811" transform="translate(294.668 115.024)" fill="#f688b6"/></g></g></g></svg>