<svg xmlns="http://www.w3.org/2000/svg" width="28" height="28" viewBox="0 0 28 28"><g transform="translate(4029 5579)"><path d="M9.055,1.583c-1.668.869-3.033,1.6-3.032,1.634,0,.077,4,2.1,4.145,2.1a7.783,7.783,0,0,0,1.042-.479l.924-.475,1.009.519,1.009.519,1.653-.743c2.491-1.119,2.75-1.242,2.709-1.283s-.947-.535-3.371-1.811C13.973.946,12.836.341,12.617.219A2.277,2.277,0,0,0,12.154,0C12.118,0,10.723.715,9.055,1.583ZM1.74,5.372,0,6.269v3.936c0,2.165.023,3.936.051,3.936s.882-.37,1.9-.823L3.8,12.5V8.346l.9.492q1.044.568,2.089,1.134l1.185.642.528-.239q.5-.225.991-.454c.255-.119.88-.4,1.389-.626a11.617,11.617,0,0,0,1.048-.5c.089-.069-.994-.667-4.005-2.214-2.27-1.166-4.2-2.116-4.289-2.111a18.86,18.86,0,0,0-1.9.905Zm17.089.252c-1.183.534-2.151.992-2.152,1.018s.644.409,1.432.852a15.725,15.725,0,0,1,1.434.857,15.972,15.972,0,0,1-1.551.752L13.2,11.266l-5.973,2.7-3.01,1.361C1.148,16.716.3,17.1.188,17.168s-.143.454-.164,2.4L0,21.881l1.553.791,1.553.791,2.153-.972c1.184-.534,2.153-1,2.153-1.034a1.717,1.717,0,0,0-.486-.317c-.267-.14-.82-.451-1.227-.69a9.652,9.652,0,0,0-.9-.488c-.089-.029-.161-.08-.159-.113s.95-.483,2.107-1c2.248-1,3.968-1.779,7.66-3.449l4.956-2.237c1.45-.656,3.138-1.422,3.749-1.7l1.111-.509.025-2.343.025-2.343-1.575-.808c-.866-.445-1.607-.807-1.645-.806s-1.038.439-2.22.973ZM23.8,14.078c-.232.113-.69.326-1.019.472s-.951.427-1.384.625l-.787.359L20.59,17.59a14.049,14.049,0,0,1-.093,2.046c-.093-.014-1.568-.77-3.051-1.565-1.07-.573-1.138-.6-1.389-.472-.145.072-1.014.462-1.931.866s-1.7.762-1.734.794,1.809,1.032,4.1,2.223l4.167,2.164,1.78-.921a20.028,20.028,0,0,0,1.85-1.026c.086-.131.079-7.845-.007-7.835a4.181,4.181,0,0,0-.484.214ZM13.94,23.133l-.926.4c-.932.4-.749.417-1.858-.135-.738-.368-1.057-.481-1.195-.426-.1.041-1,.443-1.982.892s-1.828.817-1.87.817c-.414,0,.274.411,2.93,1.751L12.153,28l1.31-.647c.721-.356,2.174-1.068,3.23-1.583s1.907-.95,1.891-.966-.9-.471-1.966-1.01l-1.937-.98Z" transform="translate(-4027.5 -5579)" fill="#fff" fill-rule="evenodd"/><rect width="28" height="28" transform="translate(-4029 -5579)" fill="none"/></g></svg>