<svg xmlns="http://www.w3.org/2000/svg" xmlns:xlink="http://www.w3.org/1999/xlink" width="28" height="28" viewBox="0 0 28 28"><defs><clipPath id="a"><rect width="28" height="28" fill="#fff"/></clipPath></defs><g clip-path="url(#a)"><path d="M5.819,13.331a1.187,1.187,0,0,1,1.192-1.187l1.976.006a1.188,1.188,0,0,1,1.188,1.189v7.476c.223-.066.508-.136.821-.21a.991.991,0,0,0,.763-.964V10.368a1.189,1.189,0,0,1,1.188-1.189h1.98a1.189,1.189,0,0,1,1.188,1.189v8.608s.5-.2.979-.4a.992.992,0,0,0,.605-.913V7.4A1.188,1.188,0,0,1,18.89,6.207h1.98A1.189,1.189,0,0,1,22.059,7.4v8.45A23.23,23.23,0,0,0,26.9,11.3a2,2,0,0,0,.3-1.863A13.988,13.988,0,1,0,1.859,21a1.769,1.769,0,0,0,1.688.875c.375-.033.841-.08,1.4-.145a.99.99,0,0,0,.878-.983v-7.42" transform="translate(0 0)" fill="#fff"/><path d="M5.363,24.39A13.993,13.993,0,0,0,27.587,13.069c0-.322-.015-.641-.037-.958C22.438,19.738,13,23.3,5.363,24.391" transform="translate(0.413 0.932)" fill="#fff"/></g></svg>