<svg xmlns="http://www.w3.org/2000/svg" width="239.999" height="68" viewBox="0 0 239.999 68"><g transform="translate(7814 8233.197)"><g transform="translate(-7813.848 -8233.163)" opacity="0.9"><path d="M35,2A33.676,33.676,0,0,0,22.137,4.522a32.967,32.967,0,0,0-10.492,6.871A31.86,31.86,0,0,0,4.584,21.564a31.215,31.215,0,0,0,0,24.872,31.86,31.86,0,0,0,7.061,10.171,32.967,32.967,0,0,0,10.492,6.871,34.068,34.068,0,0,0,25.727,0,32.967,32.967,0,0,0,10.492-6.871,31.86,31.86,0,0,0,7.061-10.171,31.215,31.215,0,0,0,0-24.872,31.86,31.86,0,0,0-7.061-10.171A32.967,32.967,0,0,0,47.863,4.522,33.676,33.676,0,0,0,35,2m0-2C54.33,0,70,15.222,70,34S54.33,68,35,68,0,52.778,0,34,15.67,0,35,0Z" transform="translate(-0.152 -0.034)" fill="#fff"/><path d="M34.375,30.3,23.929,19.858,34.375,9.412A2.879,2.879,0,1,0,30.3,5.341L19.858,15.787,9.412,5.341A2.879,2.879,0,0,0,5.341,9.412L15.787,19.858,5.341,30.3a2.879,2.879,0,1,0,4.071,4.071L19.858,23.929,30.3,34.375A2.879,2.879,0,1,0,34.375,30.3Z" transform="translate(14.872 14.507)" fill="#fff"/></g><g transform="translate(-7728.029 -8233.163)" opacity="0.9"><path d="M35,2A33.676,33.676,0,0,0,22.137,4.522a32.967,32.967,0,0,0-10.492,6.871A31.86,31.86,0,0,0,4.584,21.564a31.215,31.215,0,0,0,0,24.872,31.86,31.86,0,0,0,7.061,10.171,32.967,32.967,0,0,0,10.492,6.871,34.068,34.068,0,0,0,25.727,0,32.967,32.967,0,0,0,10.492-6.871,31.86,31.86,0,0,0,7.061-10.171,31.215,31.215,0,0,0,0-24.872,31.86,31.86,0,0,0-7.061-10.171A32.967,32.967,0,0,0,47.863,4.522,33.676,33.676,0,0,0,35,2m0-2C54.33,0,70,15.222,70,34S54.33,68,35,68,0,52.778,0,34,15.67,0,35,0Z" transform="translate(0.029 -0.034)" fill="#fff"/><path d="M38.8,15.75H7.47a3.109,3.109,0,0,0,0,6.212H38.8a3.109,3.109,0,0,0,0-6.212Z" transform="translate(11.365 15.507)" fill="#fcf1f6"/></g><g transform="translate(-7642.211 -8233.163)" opacity="0.9"><path d="M34,2A32.009,32.009,0,0,0,21.545,63.486,32.009,32.009,0,0,0,46.455,4.514,31.8,31.8,0,0,0,34,2m0-2A34,34,0,1,1,0,34,34,34,0,0,1,34,0Z" transform="translate(0.21 -0.034)" fill="#fff"/><g transform="translate(41.729 10.507) rotate(45)"><path d="M11.171.7a.5.5,0,0,1,.853,0L22.73,18.217a.5.5,0,0,1-.427.761H.892a.5.5,0,0,1-.427-.761Z" transform="translate(0)" fill="#fff"/><path d="M11.171.7a.5.5,0,0,1,.853,0L22.73,18.217a.5.5,0,0,1-.427.761H.892a.5.5,0,0,1-.427-.761Z" transform="translate(23.195 44.281) rotate(180)" fill="#fff"/></g></g></g></svg>