<svg xmlns="http://www.w3.org/2000/svg" width="1076.866" height="1074.579" viewBox="0 0 1076.866 1074.579"><path d="M149.955,16.259,0,533.677,73.462,0Z" transform="translate(538.434 3.612)" fill="#33b373"/><path d="M254.256,31.808,0,506.742,182.814,0Z" transform="translate(538.434 30.548)" fill="#33b373"/><path d="M347.444,45.966,0,457.659,284.177,0Z" transform="translate(538.434 79.631)" fill="#33b373"/><path d="M425.447,58.116,0,388.575,373.119,0Z" transform="translate(538.434 148.716)" fill="#33b373"/><path d="M484.856,67.725,0,302.507,445.755,0Z" transform="translate(538.434 234.783)" fill="#33b373"/><path d="M523.075,74.375,0,203.219,498.91,0Z" transform="translate(538.434 334.07)" fill="#33b373"/><path d="M0,95.049,538.433,77.774,530.258,0Z" transform="translate(538.434 442.241)" fill="#33b373"/><path d="M530.259,95.05l8.174-77.775L0,0Z" transform="translate(538.434 537.29)" fill="#33b373"/><path d="M498.909,203.219,0,0,523.075,128.844Z" transform="translate(538.434 537.29)" fill="#33b373"/><path d="M445.755,302.507,0,0,484.856,234.782Z" transform="translate(538.434 537.29)" fill="#33b373"/><path d="M373.12,388.574,0,0,425.447,330.459Z" transform="translate(538.434 537.291)" fill="#33b373"/><path d="M284.177,457.66,0,0,347.444,411.693Z" transform="translate(538.434 537.29)" fill="#33b373"/><path d="M182.814,506.742,0,0,254.256,474.934Z" transform="translate(538.434 537.29)" fill="#33b373"/><path d="M73.462,533.678,0,0,149.955,517.419Z" transform="translate(538.434 537.29)" fill="#33b373"/><path d="M0,537.289H78.2L39.1,0Z" transform="translate(499.332 537.291)" fill="#33b373"/><path d="M0,517.418,149.955,0,76.494,533.677Z" transform="translate(388.478 537.291)" fill="#33b373"/><path d="M0,474.934,254.256,0,71.441,506.742Z" transform="translate(284.177 537.29)" fill="#33b373"/><path d="M0,411.693,347.444,0,63.267,457.66Z" transform="translate(190.989 537.29)" fill="#33b373"/><path d="M0,330.459,425.448,0,52.328,388.574Z" transform="translate(112.985 537.29)" fill="#33b373"/><path d="M0,234.782,484.857,0,39.1,302.507Z" transform="translate(53.576 537.29)" fill="#33b373"/><path d="M0,128.844,523.076,0,24.166,203.219Z" transform="translate(15.357 537.29)" fill="#33b373"/><path d="M0,17.274,8.175,95.049,538.433,0Z" transform="translate(0 537.291)" fill="#33b373"/><path d="M0,77.775,538.433,95.05,8.175,0Z" transform="translate(0 442.24)" fill="#33b373"/><path d="M24.166,0l498.91,203.219L0,74.375Z" transform="translate(15.357 334.07)" fill="#33b373"/><path d="M39.1,0,484.857,302.508,0,67.726Z" transform="translate(53.576 234.782)" fill="#33b373"/><path d="M52.328,0l373.12,388.575L0,58.116Z" transform="translate(112.985 148.716)" fill="#33b373"/><path d="M63.267,0,347.444,457.659,0,45.966Z" transform="translate(190.989 79.631)" fill="#33b373"/><path d="M71.442,0,254.256,506.742,0,31.808Z" transform="translate(284.177 30.548)" fill="#33b373"/><path d="M76.494,0l73.462,533.678L0,16.259Z" transform="translate(388.477 3.612)" fill="#33b373"/><path d="M0,0,39.1,537.29,78.2,0Z" transform="translate(499.332)" fill="#33b373"/></svg>