<svg xmlns="http://www.w3.org/2000/svg" width="814.355" height="806.6" viewBox="0 0 814.355 806.6"><g transform="translate(13915.946 10235.447)"><path d="M376.194,0l54.02,234.493L621.737,89.72,512.976,304.211,752.387,316.9,531.737,411.025,707.013,575.237l-229.3-70.282,29.127,238.9-130.651-201.8-130.651,201.8,29.127-238.9-229.3,70.281L220.651,411.025,0,316.9l239.412-12.687L130.651,89.72,322.174,234.493Z" transform="matrix(0.996, -0.087, 0.087, 0.996, -13915.946, -10169.872)" fill="#30b478"/><path d="M376.194,4.455,322.8,236.222l-1.231-.931L133.5,93.127l107.5,212-1.533.081L4.355,317.669l218.1,93.037L49.208,573.016l226.642-69.468-.186,1.528-28.6,234.595,129.133-199.46.839,1.3L505.327,739.671,476.538,503.548,703.18,573.016,529.934,410.707l218.1-93.037L511.389,305.128l.695-1.37,106.8-210.632-189.3,143.1-.346-1.5L376.194,4.455m0-4.455,54.02,234.493L621.737,89.72,512.976,304.211,752.387,316.9,531.737,411.025,707.013,575.237l-229.3-70.281,29.127,238.9-130.651-201.8-130.651,201.8,29.127-238.9-229.3,70.282L220.651,411.025,0,316.9l239.412-12.687L130.651,89.72,322.174,234.493Z" transform="matrix(0.996, -0.087, 0.087, 0.996, -13915.946, -10169.872)" fill="#370d59"/><path d="M182.279,0l26.174,113.7,92.8-70.2-52.7,104,116,6.152L257.646,199.3l84.928,79.623-111.1-34.078,14.113,115.838-63.3-97.851L118.974,360.68l14.113-115.838-111.1,34.078L106.913,199.3,0,153.658l116-6.152-52.7-104,92.8,70.2Z" transform="matrix(0.996, -0.087, 0.087, 0.996, -13706.071, -9995.913)" fill="#fade41"/><path d="M182.279,4.458,156.733,115.43,66.153,46.912l51.436,101.512L4.352,154.428l104.363,44.551-82.9,77.72,108.45-33.265L120.492,356.494l61.788-95.5,61.787,95.505L230.292,243.435,338.742,276.7l-82.9-77.72,104.363-44.551-113.237-6.005L298.406,46.912l-90.58,68.519L182.279,4.458m0-4.458,26.174,113.7,92.8-70.2-52.7,104,116,6.152L257.646,199.3l84.928,79.623-111.1-34.078,14.113,115.838-63.3-97.851L118.974,360.68l14.113-115.838-111.1,34.078L106.913,199.3,0,153.658l116-6.152L63.3,43.5l92.8,70.2Z" transform="matrix(0.996, -0.087, 0.087, 0.996, -13706.071, -9995.913)" fill="#370d59"/><path d="M96.181,0l13.811,59.907,48.967-36.986-27.807,54.8,61.21,3.241-56.414,24.047,44.813,41.952L122.138,129l7.447,61.033-33.4-51.556-33.4,51.556L70.225,129,11.6,146.958l44.813-41.952L0,80.96l61.21-3.241L33.4,22.921,82.37,59.907Z" transform="matrix(0.996, -0.087, 0.087, 0.996, -13612.865, -9918.42)" fill="#fec9d1"/><path d="M96.181,4.451,83,61.635,36.253,26.327,62.8,78.636,4.358,81.73l53.859,22.958-42.781,40.05L71.4,127.6,64.3,185.855l31.886-49.213,31.886,49.213L120.959,127.6l55.968,17.142-42.781-40.05L188,81.73l-58.439-3.095L156.11,26.327,109.365,61.635,96.181,4.451m0-4.451,13.811,59.907,48.967-36.986-27.807,54.8,61.21,3.241-56.414,24.047,44.813,41.952L122.138,129l7.447,61.033-33.4-51.556-33.4,51.556L70.225,129,11.6,146.958l44.813-41.952L0,80.959l61.21-3.241L33.4,22.921,82.37,59.907Z" transform="matrix(0.996, -0.087, 0.087, 0.996, -13612.865, -9918.42)" fill="#370d59"/></g></svg>