<svg xmlns="http://www.w3.org/2000/svg" xmlns:xlink="http://www.w3.org/1999/xlink" width="854.124" height="888.927" viewBox="0 0 854.124 888.927"><defs><clipPath id="a"><rect width="854.124" height="888.926" fill="none"/></clipPath><clipPath id="b"><rect width="854.128" height="888.926" fill="none"/></clipPath></defs><g clip-path="url(#a)"><g transform="translate(0 0.001)"><g clip-path="url(#b)"><g transform="translate(0 -0.001)" opacity="0.36"><g clip-path="url(#a)"><g clip-path="url(#a)"><g clip-path="url(#a)"><path d="M860.16,917.031c-15.646-12.316-26.555-33.5-39.251-48.9a317.009,317.009,0,0,0-37.78-39.024c-29.364-25.239-64.356-43.542-102.621-50.467A265.855,265.855,0,0,0,560.2,785.161c-40.723,11.784-77.24,33.232-116.45,48.8-41.979,16.665-84.1,16.515-126.594,1.362-35.906-12.8-69.645-33.2-93.7-63.225-12.493-15.6-20.721-33.135-30.09-50.617a392.478,392.478,0,0,0-32.314-50.521C148.9,654.811,137.009,638.982,127.79,620.9c-9.028-17.706-15.754-36.161-26.214-53.181C80.85,533.994,54.149,506.2,40.7,468.145c-13.592-38.46-16.261-81.3-3.951-120.457,22.318-71,97.128-116.126,170.081-94.149,34.863,10.5,67.421,35.262,63.6,75.249-3.9,40.863-34.827,73.839-57.359,105.9-19.034,27.082-45.427,69.055-25.633,102.285,9.223,15.483,26.345,25.244,41.991,33.119,18.958,9.543,39.046,17.025,59.1,23.9,40.838,14,82.533,25.489,123.613,38.762,42.406,13.7,84.727,27.666,127.124,41.391q65.764,21.289,131.477,42.735c41.756,13.695,82.718,29.494,125.4,40.168,20.439,5.111,43.008,13.983,64.015,15.264v16.608c-12.54-1.43-25.051-3.309-37.631-4.119a92.929,92.929,0,0,0-21.943,1.451c-6.736,1.192-8.982,5.836-6.318,12.152a76.12,76.12,0,0,0,8.247,14.777c18.065,25.107,36.351,50.053,54.626,75.008.662.9,2,1.318,3.019,1.96ZM380.021,825.363c20.845-2.314,40.4-5,60.066-12.76,18.626-7.353,36.277-16.994,54.213-25.839,19-9.371,38.256-18.3,58.3-25.233,19.07-6.6,40.887-10.444,58.818-19.7,20.776-10.729-8.642-24.135-18.607-29.644-16.467-9.1-34.181-16.232-51.665-23.121-35.341-13.925-71.481-26.1-107.6-37.835-74.473-24.2-151.689-39.043-226.67-61.746-11.783-3.568-36.756-13.614-44.419.82-7.051,13.283,3.246,34.342,9.774,45.989,8.827,15.75,20.157,30.013,29.1,45.745a364.378,364.378,0,0,1,22.3,47.679c24.775,63.292,92.172,91.995,156.387,95.649M36.8,397.064c-.38,52.675,26.8,117.03,79.1,137.629,12.666,4.989,21.029,4.322,28.6-7.366,7.039-10.869,12.352-22.867,18.115-34.434,13.068-26.231,28.738-49.778,46.543-73.01,27.211-35.5,76.086-95.541,32.621-137.551-35.822-34.624-98.655-33.365-139.366-8.967-43.089,25.823-65.114,74.689-65.61,123.7" transform="translate(-6.032 -51.831)" fill="#03dfb3"/><path d="M828.231,936.686C780.162,873.717,710.933,827.647,630,825.126c-43.345-1.351-83.029,11.071-122.339,28.155-37.686,16.378-74.412,35.787-116.273,37.883-81.755,4.1-152.138-40.508-204.751-99.16-26.916-30.005-45.784-64.284-66.6-98.51-10.983-18.062-22.449-35.834-31.856-54.8-9.735-19.625-17.714-40.056-26.543-60.091C44.477,539.651,24.1,501.174,14.93,459.321c-8.455-38.606-9.477-80.09,2.7-118.022,22.558-70.287,87.911-119.163,162.816-112.166,34.748,3.246,74.012,17.061,96.506,45.164,26.323,32.887,13.736,76.38-4.776,109.749-9.767,17.605-21.352,34.146-31.874,51.3-10.1,16.467-20.191,32.931-20.055,52.941.27,39.66,44.129,59.818,75.071,73.444,39.231,17.278,80.472,29.834,120.972,43.734,41.918,14.386,83.908,28.5,126.582,40.506,42.844,12.049,86.207,22.1,129.114,33.9,42.127,11.587,83.4,25.514,125.013,38.744,18.833,5.988,39.349,14.448,58.915,17.2v13.445c-41.774-10.652-82.387-25.164-123.516-38.06-43.7-13.7-87.864-25.8-132.042-37.852-85.93-23.451-169.9-52.549-254.221-81.094-38.523-13.041-79.26-24.969-112.86-48.71-15.31-10.818-28.292-25.819-30-45.2-1.711-19.429,6.869-38.448,16.62-54.722C240.961,408.447,272.261,376,279.847,334.5c6.678-36.53-11.573-64.606-43.136-81.965-66.117-36.364-150.945-14.589-192.719,47.5-47.562,70.7-29.279,159.052,7.378,229.75,10.46,20.173,21.51,40.079,31.031,60.723,8.834,19.155,17.108,38.307,28.282,56.266,11.366,18.266,23.85,35.794,35.032,54.185,10.927,17.971,21.228,36.379,33.1,53.754C221.7,817.435,289.429,865.124,366.761,870.851c43.24,3.2,79.709-12.756,118.083-30.367,37.926-17.406,75.681-33.057,117.652-37.047,79.9-7.6,153.056,26.783,206.172,85.472,13.673,15.107,25.567,31.484,37.752,47.777Z" transform="translate(-1.783 -47.759)" fill="#03dfb3"/><path d="M776.624,993.852c-50.043-45.531-121.631-67.092-188.447-58.1-69.987,9.418-129.924,56.073-201.463,56.714-64.889.581-131.744-25.583-179.745-69.1-25.913-23.491-48.33-51.532-71.428-77.735-22.746-25.8-38.558-56.585-53.055-87.538C65.44,721.7,50.74,684.258,37.181,646.441,30.4,627.53,23.9,608.519,17.524,589.469c-3.08-9.2-6.266-18.374-9.177-27.626C5.883,554.017,5.328,543.02,0,536.735v-34.8c4.005,5.988,3.979,14.714,5.495,21.783,2.037,9.5,4.51,18.9,7.293,28.209,5.386,18.005,12.016,35.567,18.8,53.082,13.768,35.541,26.522,71.582,43,106,15.844,33.092,32.186,67.4,51.974,98.328,19.117,29.883,45.273,57.372,70.114,82.6,48.364,49.115,114.021,81.131,183.744,82,74.676.929,134.907-49.969,207.24-59.831A233.175,233.175,0,0,1,703.031,927.56a261.351,261.351,0,0,1,52.959,28.3c14.928,10.229,33.2,22.881,43.568,37.99Z" transform="translate(0 -104.926)" fill="#03dfb3"/><path d="M723.059,0c38.512,21.8,75.369,45,106.158,77.245,15.067,15.778,29.27,33.2,39.378,52.626,8.111,15.59,16.855,37.284,11.267,55.055-13,41.353-84.923,2.952-107.407-8.041a955.9,955.9,0,0,1-124.532-72.627C625.068,88.445,602.716,71.9,580.635,55.027q-16.943-12.949-33.724-26.106C536.724,20.97,526.218,13.36,519.329,2.162L522.181,0H580.7c-29.8,11.3,42.966,66.547,53.032,74.408a605.6,605.6,0,0,0,106.429,66.514C759.02,150.16,778.7,158.97,799,164.527c12.953,3.547,35.047,7.5,43.15-7.017,8.485-15.2-3.593-37.462-11.75-50.317-10-15.761-23.3-29.546-37.053-42.066C760.681,35.4,722.406,15.06,681.144,0Z" transform="translate(-108.561)" fill="#03dfb3"/><path d="M745.869,0c23.082,18.432,47.426,34.654,69.193,54.811,21.1,19.539,40.628,41.109,56.856,64.889,16.06,23.534,29.841,50.293,35.817,78.325,4.652,21.825,5.858,56.022-19.015,66.437-25.864,10.828-60.256-5.318-83.579-16.117-28.721-13.3-56.172-29.586-83.478-45.533-55.409-32.361-107.347-69.225-160.97-104.293C501.648,59.906,438.6,31.5,374.967,1.643L378.119,0h47.452l-2.316,2.17c47.855,29.275,96.826,56.105,143.572,87.305,47.5,31.7,93.755,64.815,143.527,92.974q36.5,20.653,74.3,38.9c22.967,11.131,49.078,23.1,75.322,19.651,58.229-7.658,13.468-96.984-3.892-122.669C839.627,93.984,819.3,72.186,797.364,52.7,775.214,33.029,750.081,18.122,726.888,0Z" transform="translate(-78.384)" fill="#03dfb3"/><path d="M854.128,578.889c-35.929-12.254-71-26.2-107.53-36.822-36.76-10.685-73.978-19.575-111.113-28.828-37.249-9.283-74.506-19.088-110.46-32.663-29.822-11.26-65.443-22.583-80.068-53.731-7.021-14.955-7.819-31.97-9.339-48.163-1.606-17.1-2.867-34.227-6.219-51.1-6.452-32.489-20.1-62.222-42.32-86.953-45.118-50.216-114.211-84.4-180.686-93.976-38.61-5.563-78.98-1.5-115.464,12.443a215.753,215.753,0,0,0-47.257,25.241C28.039,195.36,16.017,212.326,0,222.211v-6.327c12.319-9.03,22.288-21.262,34.631-30.542a222.528,222.528,0,0,1,40.621-24.248,234.994,234.994,0,0,1,103.081-21.156c67.34,1.476,134.949,30.588,187.123,72.328,25.217,20.173,46.93,43.592,61.794,72.461,15.98,31.035,22.164,65.4,31.438,98.752,8.728,31.39,26.761,52.72,55.263,68.226,31.425,17.095,65.614,27.54,99.571,38.289,41.165,13.029,82.68,24.9,123.871,37.835,19.911,6.253,39.724,12.82,59.35,19.918,18.647,6.744,38.054,17.681,57.382,21.652Z" transform="translate(0 -29.241)" fill="#03dfb3"/><path d="M0,339.889c5.355-5.68,6.966-16.378,10.086-23.609A184.724,184.724,0,0,1,23.953,290.05a181.4,181.4,0,0,1,37.126-42.014c28.7-23.726,64.477-35.749,101.528-36.951,39.355-1.278,77.292,11.226,109.687,33.265,33.668,22.9,47.907,56.887,39.648,97.22-8.53,41.657-36.4,73.447-51.161,112.328-14.378,37.865,10.613,63.317,41.976,81.02,37.544,21.191,80.86,33.961,121.451,48.014,42.505,14.716,85.469,28.165,129.023,39.432,50.655,13.1,102.087,22.953,152.85,35.587,25.1,6.247,49.78,14.019,74.4,21.907,23.844,7.639,48.906,18.289,73.645,22.245v12.654c-44.781-12.22-88.476-27.921-133.11-40.655-44.444-12.681-89.706-22.119-134.537-33.276-88.8-22.1-174.792-52.248-260.333-84.532-32.123-12.123-80.679-31.562-85.6-70.967-2.689-21.53,9.1-39.884,19.4-57.744,10.759-18.662,22.583-36.821,31.309-56.573,16.365-37.048,20.338-80.445-10.75-110.941-27.214-26.7-67.385-40.446-104.823-42.938-44.3-2.947-87.05,12.65-119.7,42.644A166.155,166.155,0,0,0,20.3,307.115a191.778,191.778,0,0,0-11.45,28.059c-3.017,9.395-3.4,21.9-8.853,30.022V339.889" transform="translate(0 -44.107)" fill="#03dfb3"/><path d="M0,198.094a26.551,26.551,0,0,0,3.78-2.605q51.043-49.754,120.87-64a250.751,250.751,0,0,1,65.085-4.341c32.363,1.933,63.436,10,93.572,21.851,37.792,14.868,71.892,35.959,103.788,60.888,36.878,28.823,65.545,64.8,91.5,103.328,11.9,17.661,24.409,35,37.826,51.525,16.195,19.947,37.117,34.46,58.99,47.754,55.664,33.832,114.422,61.363,174.193,86.952,33.261,14.241,66.243,29.138,99.372,43.688a33.255,33.255,0,0,0,5.152,1.357v10.282c-65.784-27.607-133.109-51.306-199.282-77.936-58.087-23.376-127.669-48.684-162.7-103.991-18.368-29-30.548-61.444-48.791-90.571-17.154-27.389-39.014-51.121-64.145-71.373-51.366-41.395-114.6-71.8-180.744-78.352-36.55-3.619-73.652.48-108.162,13.244a235.565,235.565,0,0,0-48.044,24.213C26.976,180.1,14.954,194.367,0,204.421v-6.327" transform="translate(0 -26.477)" fill="#03dfb3"/><path d="M91.739,0C88.2,1.5,85.757,4.732,87.693,8.585c2.066,4.111,9.286,4.373,13.143,5.109,14.607,2.784,29.516,2.883,44.308,3.956a744.966,744.966,0,0,1,87.724,11.142c56.073,10.879,108.814,31.392,159.469,57.474C494.577,138.908,584.772,211.7,682.79,271.41c54.433,33.16,108.917,61.429,171.338,75.777V363.8c-66.386-19.07-128.278-53.8-186.283-90.715C564.471,207.3,467.761,128.26,355.993,76.731,299.644,50.753,240.8,34.481,178.786,30.338c-31.123-2.079-62.146-1.99-93,3.025A301.9,301.9,0,0,0,39.413,44.309C25.6,48.876,13.38,56.363,0,61.688V30.053a18.532,18.532,0,0,0,3.963-1.4Q26.538,14.392,49.033,0Z" transform="translate(0)" fill="#03dfb3"/><path d="M0,303.432c10.641-11.883,16.752-28.362,27.019-41.02A180.3,180.3,0,0,1,168.427,195.5,209.4,209.4,0,0,1,273.2,224.259c31.19,18.105,57.95,42.143,63.332,79.571,6.09,42.344-13.411,81.724-29.988,119.265-7.207,16.322-16.862,36.1-12.916,54.365,3.8,17.571,18.473,30.217,32.925,39.548,34.655,22.374,76.258,34.268,115.067,47.215Q503.746,584.95,567.629,599.8c48.535,11.328,97.68,19.82,146.164,31.4,47.367,11.316,93.807,26.471,140.336,40.768v11.072c-43.363-12.039-85.913-26.86-129.449-38.3-41.911-11.014-84.584-18.725-126.843-28.231-84.219-18.943-169.947-42.483-249.215-77.127-29.939-13.086-73.038-32.922-71.554-71.635.777-20.305,13.782-40.013,22.486-57.853,8.869-18.18,17.7-36.4,22.934-56.027,9.847-36.958,5.779-74.608-22.458-102.343-27.036-26.554-66-42.856-103.049-48.588-41.161-6.368-83.035.4-118.919,21.935a180.977,180.977,0,0,0-45.977,39.193,186.772,186.772,0,0,0-17.837,25.614C9.435,297.96,6.327,308.193,0,315.3V303.432" transform="translate(0 -40.867)" fill="#03dfb3"/><path d="M854.128,602.953C816.54,590.27,779.315,577.281,740.793,567.6c-39.713-9.979-79.99-17.623-120.033-26.136-38.841-8.259-77.94-16.115-116.091-27.217a565.251,565.251,0,0,1-54.727-18.842c-15.44-6.268-32.7-13.688-44.06-26.34-22.647-25.224-11-62.7-7.7-92.652,4.07-37,3.509-75-14.736-108.479-32.667-59.954-109.314-95.885-173.964-107.142-39-6.791-79.991-3.056-116.9,11.43a205.235,205.235,0,0,0-49.561,28.022C27.147,212.368,15.864,229.89,0,241.531v-7.118c23.54-22.829,45.213-44.626,75.166-59.206,31.5-15.332,67.384-23.371,102.421-22.25,69.416,2.221,142.784,34.185,191.44,83.884a151.5,151.5,0,0,1,42.154,86.105c2.664,19.289,2.276,38.8,1.416,58.2-.819,18.474-3.056,38.743.887,56.987,6.964,32.218,44.578,45.8,72.007,55.482,36.872,13.013,74.814,22.746,112.91,31.42,42.694,9.722,85.727,17.956,128.22,28.558,22.036,5.5,43.871,11.713,65.411,18.921,20.464,6.85,41.008,16.393,62.1,20.945Z" transform="translate(0 -31.953)" fill="#03dfb3"/><path d="M0,276.605c11.8-11.216,19.659-26.843,31.327-38.645a192.635,192.635,0,0,1,38.726-30.207,195.353,195.353,0,0,1,108.112-26.917c38.129,1.61,75.786,13.925,108.9,32.613,29.469,16.628,57.174,40.278,68.07,73.333,12.068,36.613,2.592,75.586-9.011,110.96-6.046,18.432-15.636,38.4-16.22,58.024-.529,17.768,8.3,32.171,21.785,43.057,30.116,24.317,71.351,35.1,107.6,46.616a1182.691,1182.691,0,0,0,121.132,31.4c46.587,9.53,93.517,17.687,139.9,28.167,22.887,5.17,45.566,11.241,68.034,18,21.493,6.468,43.649,17.006,65.765,20.557v10.281c-19.788-3.706-39.169-11.951-58.379-17.989-20.019-6.291-40.17-12.2-60.611-16.964-42.088-9.82-84.6-17.468-126.911-26.213-41.5-8.579-82.763-18.387-123.476-30.168-39.5-11.431-80.368-23.432-117.441-41.46-32.7-15.9-62.209-39.359-50.015-78.974,11.589-37.649,30.435-72.78,33.065-112.757,2.548-38.713-13.2-71.984-43.652-95.772-29.676-23.177-66.133-38.74-103.2-44.988-39.522-6.661-80.2-2.371-116.413,15.292a195.1,195.1,0,0,0-50.806,35.72,188.084,188.084,0,0,0-19.145,21.956C11.318,269.352,7.062,279.5,0,286.095v-9.49" transform="translate(0 -37.765)" fill="#03dfb3"/><path d="M854.128,627.993c-38.876-12.8-77.549-25.766-117.4-35.277S656.531,575.9,616.4,567.767c-39.757-8.055-79.67-15.95-118.836-26.581-36.28-9.848-75.124-20.784-108.183-39.064-14.895-8.236-30.064-20.174-35.565-36.929-5.855-17.833,1.459-37.756,5.833-55.165,9.415-37.475,20.5-76.1,11.285-114.834-16.311-68.6-96.949-108.221-160.551-120.061-40.265-7.5-82.553-3.814-120.263,12.519A205.585,205.585,0,0,0,41.6,217.439,193.6,193.6,0,0,0,19.37,238.886c-6.5,7.349-11.708,16.92-19.37,22.939v-7.909c12.322-9.424,21.115-24.421,32.894-34.984a202.842,202.842,0,0,1,38.773-27.294,208.144,208.144,0,0,1,106.208-24.82c37.844,1.254,74.74,12.522,108.476,29.345,30.4,15.16,60.747,36.148,79.35,65.176,20.566,32.092,22.384,69.839,15.765,106.4-3.507,19.374-7.714,38.644-10.913,58.071-3.047,18.507-2.48,37.061,10.112,52.021,22.468,26.693,64.253,36.5,96.094,46.437,38.019,11.864,76.679,20.666,115.673,28.629,44.621,9.113,89.6,16.967,133.957,27.283,43.526,10.122,85.317,24.555,127.739,38.321Z" transform="translate(0 -34.847)" fill="#03dfb3"/><path d="M0,180.349a23.756,23.756,0,0,0,4.262-2.525A239.125,239.125,0,0,1,116,119.894a285,285,0,0,1,44.726-5.783,269.614,269.614,0,0,1,42.535.872c34.46,3.487,67.374,13.214,99.117,26.975,35.115,15.223,67.068,35.728,97.705,58.435,40.238,29.825,76.708,63.889,111.058,100.181,34.013,35.935,73.873,64,115.591,90.017q108.641,67.76,222.614,126a27.964,27.964,0,0,0,4.786,1.457v11.072c-61.706-29.045-123.378-58.871-182.169-93.513-30.911-18.214-61.867-36.576-92.158-55.808-26.166-16.613-48.7-38.028-69.5-60.853-44.149-48.426-86.131-97.049-140.92-133.976-53.547-36.09-115.389-63.012-180.528-66.782a257.047,257.047,0,0,0-99.733,14.06,237.449,237.449,0,0,0-45.972,22.069C27.734,163.87,15.132,176.967,0,186.676v-6.327" transform="translate(0 -23.758)" fill="#03dfb3"/><path d="M901.2,317.135c-24.227,6.556-48.31-1.588-70.969-9.939-22.944-8.455-44.923-19.147-66.281-31.016-43.827-24.355-85.987-51.949-127.878-79.456-81.753-53.683-160.152-110.691-251.239-148a669.955,669.955,0,0,0-79.9-26.614c-26.39-7.1-53.8-11.656-79.738-20.283L228.181,0h56.152l-2.71,1.931C325.8,16.847,370.071,31.225,412.682,50.3,455.129,69.311,495.526,92.5,534.5,117.812c80.2,52.1,157.81,108.8,243.134,152.643,21.9,11.252,45.433,21.013,69.683,25.76,11.129,2.178,23.894,3.32,34.661-1.093,9.722-3.985,12.682-11.935,19.226-19.112Z" transform="translate(-47.075)" fill="#03dfb3"/><path d="M0,162.364c24.58-17.9,48.6-34.527,77.22-45.418a268.806,268.806,0,0,1,90.062-17.384c63.417-1.3,125.181,18.194,180.225,48.788,55.341,30.76,106.906,69.878,155.671,110.082,25.366,20.913,49.333,43.638,76.2,62.665,26.173,18.534,53.118,36.027,80.263,53.1,31.509,19.815,63.464,38.916,95.5,57.872q24.3,14.381,48.663,28.66c15.957,9.376,32.748,22.524,50.326,28.264v11.863a22.053,22.053,0,0,1-3.652-1.25Q713.283,424.511,583.06,337.891c-23.833-15.945-44.665-35.6-65.775-54.859C465.6,235.879,411.245,192.2,351,156.335a379.383,379.383,0,0,0-121.337-46.788,283.776,283.776,0,0,0-73.759-4.719c-49.042,3.237-94.012,18.588-134,47.56-6.378,4.621-12.3,9.877-18.492,14.755A15.484,15.484,0,0,1,0,168.691v-6.327" transform="translate(0 -20.8)" fill="#03dfb3"/><path d="M854.128,406.658c-58.09-25.084-114.13-55.373-168.094-88.384-55.086-33.7-106.941-72.135-159.8-109.14C473.657,172.327,419.827,137.508,362.8,107.945c-55.512-28.775-113.885-45.9-176.347-50.251A312.383,312.383,0,0,0,85.473,66.844,263.3,263.3,0,0,0,40.219,83.237C26.166,89.867,13.719,99.08,0,106.132V95.059c11.678-5.822,22.439-13.3,34.313-18.874a259.169,259.169,0,0,1,42.9-15.591,323.006,323.006,0,0,1,92.441-10.536c61.907,1.715,122.191,17.126,178.182,43.322C462.529,147.042,560.345,228.608,666.56,296.24c29.619,18.86,59.873,36.76,91.053,52.929,16.181,8.391,32.631,16.223,49.232,23.751,15.212,6.9,31.112,16.3,47.284,20.294Z" transform="translate(0 -10.437)" fill="#03dfb3"/><path d="M0,143.468C24.993,126.515,49.218,110.79,77.933,100.7A285.758,285.758,0,0,1,168.124,84.8c62.393-.931,124.159,17.241,179.018,46.2,56.522,29.833,109.95,67.093,161.091,105.274,51.111,38.16,100.124,77.807,154.721,111.08,32.029,19.518,64.464,38.39,96.837,57.331,31.084,18.186,61.865,38.781,94.338,54.335v11.863a28.77,28.77,0,0,1-3.974-1.569C764.305,420.141,678.7,370.531,597,314.619c-22.217-15.2-43.112-32.407-64.076-49.357q-52.342-42.315-108.171-79.834c-29.757-19.948-59.58-39.769-91.792-55.692A392.49,392.49,0,0,0,231.513,95.361a301.6,301.6,0,0,0-59.531-5.49c-59.206.7-113.37,17.067-161.087,52.9-2.838,2.131-5.553,4.426-8.419,6.518-.619.452-1.64.354-2.476.509v-6.327" transform="translate(0 -17.721)" fill="#03dfb3"/><path d="M854.128,439.063a18.148,18.148,0,0,1-4.081-1.088C761.6,390.536,674.153,341.4,592.227,283.143c-26.669-18.963-52.311-39.364-78.8-58.585-49.55-35.952-100.823-69.3-154.417-98.928-34.388-19.012-70.574-33.78-109.157-41.846-16.106-3.367-32.47-5.723-48.824-7.617a261.33,261.33,0,0,0-35.447-1.58C106.775,75.819,52.755,91.918,5.1,127.285A31.988,31.988,0,0,1,0,129.837v-7.909c11.393-4.918,21.518-13.874,32.536-19.852A264.864,264.864,0,0,1,74,84.02a298.772,298.772,0,0,1,92.89-15.261c61.9-.518,123.09,16.069,178.386,43.242C459.915,168.334,556.26,253.048,663.459,321.127q45.528,28.913,92.9,54.749c16.631,9.109,33.368,18.02,50.125,26.893,15.557,8.237,31.133,18.382,47.646,24.43Z" transform="translate(0 -14.371)" fill="#03dfb3"/><path d="M242.794,1012.037c-7.611-5.111-15.349-10.044-22.809-15.366a270.63,270.63,0,0,1-62.01-60.931A411.025,411.025,0,0,0,116.4,886.67c-27.13-27.058-45.423-59.392-58.036-95.47-20.2-57.789-37.941-116.344-56.005-174.8C2.009,615.275.8,614.421,0,613.444V588.927c.815,1.223,1.977,2.338,2.4,3.685,21.725,69.7,43.828,139.26,71.835,206.793a262.89,262.89,0,0,0,52.059,80.256c15.408,16.374,29.922,33.642,44.11,51.1,28.3,34.822,63.3,60.6,103.965,79.039,1.391.631,2.68,1.487,4.017,2.238Z" transform="translate(0 -123.11)" fill="#03dfb3"/><path d="M186.643,1026.877a17.321,17.321,0,0,0-1.676-2.1,323.154,323.154,0,0,1-53.738-64.957,200.762,200.762,0,0,0-30.922-38.352c-35.876-34.156-57.28-76.061-68.813-123.859-8.917-36.964-19.3-73.574-29.115-110.321C2.023,685.959.813,684.855,0,683.644V659.918c.831,1.1,2.076,2.078,2.435,3.314,9.266,31.876,18.319,63.814,27.67,95.664,6.6,22.467,13.143,44.965,20.5,67.19a196.443,196.443,0,0,0,45.463,75.375,543.536,543.536,0,0,1,55.619,67.613c14.969,21.554,33.868,39.6,54.372,55.93.7.558,1.3,1.245,1.942,1.871Z" transform="translate(0 -137.95)" fill="#03dfb3"/><path d="M614.923,1115.151c12.621-5.016,25.163-10.246,37.881-15,21.434-8.013,43.467-13.908,66.247-16.4,52.409-5.728,101.575,4.32,147.174,31.057.1.057.129.225.191.341H823.71c-.167-.19-.3-.481-.506-.555a222.662,222.662,0,0,0-64.16-12.787c-20.794-1.021-41.518.07-61.87,4.737-10.643,2.442-21.1,5.71-31.635,8.605Z" transform="translate(-128.545 -226.225)" fill="#03dfb3"/><path d="M147.891,1042.344c-16.187-21.767-29.525-45.3-45.249-67.315-15.4-21.562-35.74-38.774-50.982-60.478A217.116,217.116,0,0,1,19.776,845.13c-3.842-14.4-6.834-29.009-10.1-43.546C7.268,790.876,6.935,772.407,0,763.961V733.909c.789.984,2.039,1.859,2.3,2.968C8.457,763.2,14.683,789.5,20.536,815.889c7.732,34.862,19.435,68.026,41.325,96.746A290.2,290.2,0,0,0,85.767,940.43,266.731,266.731,0,0,1,124.658,990.9c11.118,18.552,24.469,35.481,39.05,51.441Z" transform="translate(0 -153.418)" fill="#03dfb3"/><path d="M885.127,0c2.751,2.577,5.294,5.43,8.286,7.687a555.324,555.324,0,0,1,77.33,70.35c25.057,27.636,46.2,57.934,62.317,91.658.648,1.356,2.064,2.344,3.121,3.5v36.379c-.769-.856-1.983-1.594-2.242-2.582-11.244-42.951-33.564-79.92-61.565-113.764-27.447-33.175-59.483-61.417-94.142-86.8-2.614-1.916-4.9-4.276-7.341-6.43Z" transform="translate(-182.053)" fill="#03dfb3"/><path d="M118.629,1064.082c-8.26-13.841-16.934-27.456-24.672-41.583-8.925-16.295-20.207-30.663-33.008-43.965C32.912,949.4,14.549,914.723,2.374,876.478c-.361-1.135-1.565-2-2.374-2.994V837.9c.79,1.187,2.035,2.28,2.3,3.576,4.42,21.287,10.017,42.2,18.637,62.237a226.424,226.424,0,0,0,46.85,69.974c15.655,15.9,28.1,33.872,38.99,53.24,7.188,12.788,15.758,24.8,23.71,37.158Z" transform="translate(0 -175.155)" fill="#03dfb3"/><path d="M921.749,0c1.179,1.489,2.13,3.258,3.57,4.422a673.219,673.219,0,0,1,61.467,56.237,549.782,549.782,0,0,1,53.875,65.96c.888,1.263,2.432,2.066,3.671,3.082v15.818c-1.1-.947-2.537-1.69-3.264-2.868-26.524-43.027-59.58-80.437-97.632-113.532-10.117-8.8-20.539-17.247-30.779-25.9A26.089,26.089,0,0,1,909.886,0Z" transform="translate(-190.204)" fill="#03dfb3"/><path d="M94.112,1081.848c-13.775-25.739-26.257-51.1-45.967-72.9a294.49,294.49,0,0,1-26.609-34.1C14.774,964.721,9.271,949.592,0,941.866V922.885c9.38,10.7,14.259,26.643,21.7,38.937,8.35,13.8,18.28,26.225,28.853,38.365,10.166,11.673,20.237,22.867,28.183,36.243,8.47,14.259,19.145,29.9,24.869,45.418Z" transform="translate(0 -192.921)" fill="#03dfb3"/><path d="M952.373,0c17.65,17.043,35.577,33.821,52.959,51.135,8.065,8.034,15.864,16.284,23.34,24.87,6.94,7.968,13.646,18.746,22.558,24.434V112.3c-9.367-6.68-16.279-18.843-23.735-27.633q-13.1-15.443-27.135-30.056C982.141,35.706,959.755,19.965,942.883,0Z" transform="translate(-197.102)" fill="#03dfb3"/><path d="M72.759,1092.3c-11.237-25.379-24.408-49.452-43.4-70.154-9.01-9.821-16.358-21.16-24.577-31.717C3.519,988.8,1.61,987.679,0,986.324V972.879c8.546,6.771,14.276,17.641,20.626,26.477,7.361,10.241,14.915,20.182,23.121,29.761,16.221,18.935,26.163,41.3,37.711,63.183Z" transform="translate(0 -203.372)" fill="#03dfb3"/><path d="M980.369,0c10.483,13.9,25.437,25.081,37.564,37.657,12.164,12.617,24.251,29.892,39.149,39.058V86.2C1041.1,75.416,1028.676,57.2,1015.22,43.323,1000.849,28.5,984.582,15.416,970.878,0Z" transform="translate(-202.954)" fill="#03dfb3"/><path d="M53.779,1100.032c-6.157-15.737-13.347-30.457-23.238-44.226C22.13,1044.095,11.9,1029.195,0,1020.946v-11.072c1.15.768,2.582,1.31,3.41,2.338,12.671,15.721,26.24,30.843,37.554,47.494,8.432,12.407,13.922,26.811,20.723,40.326Z" transform="translate(0 -211.106)" fill="#03dfb3"/><path d="M1005.575,0c7.313,11.2,18.625,20.217,28.132,29.607,8.744,8.635,17.86,20.949,28.81,26.545v8.7c-13.129-8.323-23.7-22.179-34.6-33.242-10.146-10.3-22.5-19.971-31.045-31.61Z" transform="translate(-208.388)" fill="#03dfb3"/><path d="M37.17,1106.721c-7.364-19.82-17.483-37.922-33-52.62A27.444,27.444,0,0,0,0,1051.361v-9.491c1.142.522,2.544.778,3.388,1.6a168.9,168.9,0,0,1,40.9,63.246Z" transform="translate(0 -217.794)" fill="#03dfb3"/><path d="M1028.781,0c4.535,7.788,12.254,13.688,18.733,19.921,6.089,5.859,12.227,13.9,20.019,17.25V45.08c-8.714-3.54-16.28-14.025-22.947-20.57-7.322-7.188-19.128-15.353-23.714-24.509Z" transform="translate(-213.405)" fill="#03dfb3"/><path d="M0,1069.867c4.294,4.307,9.544,8.018,12.677,13.048,5.908,9.485,10.6,19.73,15.793,29.659H21.354c-4.05-11.268-9.519-21.728-17.725-30.568-.868-.936-2.4-1.253-3.628-1.857v-10.281" transform="translate(0 -223.647)" fill="#03dfb3"/><path d="M1072.132,26.889C1062.715,23.264,1047.895,8.784,1042.87,0h7.118c6.741,6.5,13.471,13.015,20.259,19.468.38.361,1.246.214,1.885.3Z" transform="translate(-218.003)" fill="#03dfb3"/><path d="M0,1100.863c1.377,1.068,3.188,1.865,4.054,3.252,3.042,4.87,5.76,9.942,8.6,14.938H0v-18.19" transform="translate(0 -230.126)" fill="#03dfb3"/><path d="M1076.73,10.282A21.4,21.4,0,0,1,1064.867,0h11.863Z" transform="translate(-222.602 0)" fill="#03dfb3"/><path d="M13.445,0,0,7.119V0Z" fill="#03dfb3"/><path d="M1078.976,994.7c-4,.361-4.948-15.52,0-15.817Z" transform="translate(-224.847 -204.627)" fill="#03dfb3"/><path d="M378.318,753.894c47.434.9,94.87,12.994,139.259,29.171,20.033,7.3,44.107,16.065,59.936,31.013,20.379,19.244-11.966,35.2-26.549,43.825-40.545,23.984-80.659,45.779-129.341,41.9-37.442-2.981-83.314-20.246-98.481-57.516-7.672-18.851-11.861-47.268-3.5-66.435,9.644-22.112,38.61-20.605,58.681-21.96M417.429,777.4c-30.338.032-68.461,12.4-65.43,49.615,2.389,29.329,33.628,43.563,59.172,47.71,30.342,4.925,61.328-1.267,88.34-15.59,12.045-6.387,27.862-14.71,34.672-27.154,8.322-15.2-10.953-26.325-22.477-32.1-29.254-14.663-61.748-21.159-94.276-22.481" transform="translate(-65.858 -157.595)" fill="#03dfb3"/><path d="M53.861,396.636c.895-39.344,16.527-76.91,48.118-101.4,32.973-25.561,82.719-31.455,119.061-9.5,39.921,24.122,25.028,68.2,3.469,100.017-13.351,19.7-29.2,37.751-44.453,55.98-13.7,16.375-27.774,37.687-47.136,47.87-23.093,12.146-45.637-3.195-58.954-22.312-14.055-20.174-20.3-46.331-20.105-70.658M167.57,282.354c-40.114,0-74.6,24.456-92.131,59.919-14.37,29.076-15.6,68.347-.274,97.407,7.808,14.808,22.4,29.514,40.358,28.743,19.8-.849,36.727-18.19,49.875-31.229a452.655,452.655,0,0,0,40.763-46.928c11.048-14.476,21.668-30.835,25.334-48.967,7.9-39.071-30.253-58.521-63.925-58.944" transform="translate(-11.258 -56.902)" fill="#03dfb3"/><path d="M89.762,391.137c.07-31.956,18.4-62.731,47.249-76.871,25.636-12.564,77.133-12.7,80.465,25.266,1.506,17.17-8.614,33.853-18.361,47.159-11.939,16.3-26.161,31.639-42.728,43.32-12.939,9.123-29.94,17.219-45.189,8.435-15.844-9.128-21.691-30.2-21.437-47.308m18.8-8.678c2.1,11.569,4.217,24.692,16.671,29.469,10.074,3.865,20.962-.66,29.553-5.975,18.253-11.291,42.134-36.349,40.034-59.757-2.143-23.9-33.01-24.649-49.834-17.309-20.824,9.084-36.091,30.678-36.424,53.572" transform="translate(-18.762 -64.118)" fill="#03dfb3"/></g></g></g></g></g></g></g></svg>